<svg width="50" height="50" viewBox="0 0 500 474" fill="none" xmlns="http://www.w3.org/2000/svg">
<path d="M167.238 381.086C167.238 383.039 164.919 384.602 161.996 384.602C158.669 384.895 156.351 383.332 156.351 381.086C156.351 379.133 158.669 377.57 161.593 377.57C164.617 377.277 167.238 378.84 167.238 381.086ZM135.887 376.691C135.181 378.645 137.198 380.891 140.222 381.477C142.843 382.453 145.867 381.477 146.472 379.523C147.077 377.57 145.161 375.324 142.137 374.445C139.516 373.762 136.593 374.738 135.887 376.691ZM180.444 375.031C177.52 375.715 175.504 377.57 175.806 379.816C176.109 381.77 178.73 383.039 181.754 382.355C184.677 381.672 186.694 379.816 186.391 377.863C186.089 376.008 183.367 374.738 180.444 375.031ZM246.774 0.8125C106.956 0.8125 0 103.645 0 239.094C0 347.395 70.3629 440.07 170.867 472.687C183.77 474.934 188.306 467.219 188.306 460.871C188.306 454.816 188.004 421.418 188.004 400.91C188.004 400.91 117.44 415.559 102.621 371.809C102.621 371.809 91.129 343.391 74.5968 336.066C74.5968 336.066 51.5121 320.734 76.2097 321.027C76.2097 321.027 101.31 322.98 115.121 346.223C137.198 383.918 174.194 373.078 188.609 366.633C190.927 351.008 197.48 340.168 204.738 333.723C148.387 327.668 91.5323 319.758 91.5323 225.812C91.5323 198.957 99.1935 185.48 115.323 168.293C112.702 161.945 104.133 135.773 117.944 101.984C139.012 95.6367 187.5 128.352 187.5 128.352C207.661 122.883 229.335 120.051 250.806 120.051C272.278 120.051 293.952 122.883 314.113 128.352C314.113 128.352 362.601 95.5391 383.669 101.984C397.48 135.871 388.911 161.945 386.29 168.293C402.419 185.578 412.298 199.055 412.298 225.812C412.298 320.051 352.923 327.57 296.573 333.723C305.847 341.437 313.71 356.086 313.71 379.035C313.71 411.945 313.407 452.668 313.407 460.676C313.407 467.023 318.044 474.738 330.847 472.492C431.653 440.07 500 347.395 500 239.094C500 103.645 386.593 0.8125 246.774 0.8125ZM97.9839 337.629C96.6734 338.605 96.9758 340.852 98.6895 342.707C100.302 344.27 102.621 344.953 103.931 343.684C105.242 342.707 104.94 340.461 103.226 338.605C101.613 337.043 99.2944 336.359 97.9839 337.629ZM87.0968 329.719C86.3911 330.988 87.3992 332.551 89.4153 333.527C91.0282 334.504 93.0444 334.211 93.75 332.844C94.4556 331.574 93.4476 330.012 91.4314 329.035C89.4153 328.449 87.8024 328.742 87.0968 329.719ZM119.758 364.484C118.145 365.754 118.75 368.684 121.069 370.539C123.387 372.785 126.31 373.078 127.621 371.516C128.931 370.246 128.327 367.316 126.31 365.461C124.093 363.215 121.069 362.922 119.758 364.484ZM108.266 350.129C106.653 351.105 106.653 353.645 108.266 355.891C109.879 358.137 112.601 359.113 113.911 358.137C115.524 356.867 115.524 354.328 113.911 352.082C112.5 349.836 109.879 348.859 108.266 350.129Z" fill="#000000"/>
</svg>
