<svg width="50" height="50" viewBox="0 0 500 500" fill="none" xmlns="http://www.w3.org/2000/svg">
<path d="M250 0C111.928 0 0 111.928 0 250C0 388.072 111.928 500 250 500C388.071 500 500 388.072 500 250C499.999 111.928 388.069 0 250 0ZM183.299 370.864H128.409V193.529H183.299V370.864ZM155.593 170.306C137.666 170.306 123.134 155.655 123.134 137.585C123.134 119.513 137.668 104.863 155.593 104.863C173.517 104.863 188.05 119.513 188.05 137.585C188.051 155.656 173.518 170.306 155.593 170.306V170.306ZM388.999 370.864H334.375V277.778C334.375 252.247 324.678 237.996 304.49 237.996C282.519 237.996 271.041 252.839 271.041 277.778V370.864H218.395V193.529H271.041V217.413C271.041 217.413 286.877 188.12 324.479 188.12C362.082 188.12 389 211.08 389 258.578L388.999 370.864V370.864Z" fill="#000000"/>
</svg>
